<mxfile host="app.diagrams.net" modified="2023-07-26T13:57:39.339Z" agent="Mozilla/5.0 (Windows NT 10.0; Win64; x64; rv:109.0) Gecko/20100101 Firefox/115.0" etag="Uwz0xDocUB-YFN00rMBK" version="21.6.5" type="device">
  <diagram id="9bKHT3L2FAmgFMYhWOld" name="Page-1">
    <mxGraphModel dx="1059" dy="615" grid="1" gridSize="10" guides="1" tooltips="1" connect="1" arrows="1" fold="1" page="1" pageScale="1" pageWidth="827" pageHeight="1169" math="1" shadow="0">
      <root>
        <mxCell id="0" />
        <mxCell id="1" parent="0" />
        <mxCell id="-10jFJpbOj4g2C5kHSii-20" value="&lt;div&gt;&lt;span style=&quot;background-color: rgb(255, 255, 255);&quot;&gt;&lt;b&gt;Blank period &lt;/b&gt;&lt;br&gt;`\Delta_{\text{intervention}}` &lt;font style=&quot;font-size: 8px&quot;&gt;&lt;br&gt;(med=6.7h, IR=8.7h)&lt;/font&gt;&lt;/span&gt;&lt;/div&gt;" style="endArrow=block;startArrow=block;html=1;strokeWidth=1;endFill=1;startFill=1;" parent="1" edge="1">
          <mxGeometry x="-0.1111" y="30" width="50" height="50" relative="1" as="geometry">
            <mxPoint x="300" y="260" as="sourcePoint" />
            <mxPoint x="390" y="260" as="targetPoint" />
            <mxPoint as="offset" />
          </mxGeometry>
        </mxCell>
        <mxCell id="-10jFJpbOj4g2C5kHSii-33" value="&lt;div style=&quot;font-size: 11px;&quot;&gt;Observation period&lt;/div&gt;" style="rounded=1;whiteSpace=wrap;html=1;align=right;fillColor=#fff2cc;strokeColor=#d6b656;verticalAlign=bottom;spacingBottom=5;fontStyle=1;fontSize=11;" parent="1" vertex="1">
          <mxGeometry x="190" y="270" width="110" height="130" as="geometry" />
        </mxCell>
        <mxCell id="-10jFJpbOj4g2C5kHSii-28" value="" style="group" parent="1" vertex="1" connectable="0">
          <mxGeometry x="160" y="280" width="480" height="80" as="geometry" />
        </mxCell>
        <mxCell id="-10jFJpbOj4g2C5kHSii-1" value="" style="rounded=1;whiteSpace=wrap;html=1;fillColor=#b1ddf0;strokeColor=#10739e;labelPosition=center;verticalLabelPosition=middle;align=right;verticalAlign=middle;" parent="-10jFJpbOj4g2C5kHSii-28" vertex="1">
          <mxGeometry width="480" height="80" as="geometry" />
        </mxCell>
        <mxCell id="-10jFJpbOj4g2C5kHSii-27" value="Hosp stay" style="text;html=1;strokeColor=none;fillColor=none;align=center;verticalAlign=middle;whiteSpace=wrap;rounded=0;fontColor=#0066CC;fontStyle=1" parent="-10jFJpbOj4g2C5kHSii-28" vertex="1">
          <mxGeometry x="390" y="30" width="70" height="20" as="geometry" />
        </mxCell>
        <mxCell id="-10jFJpbOj4g2C5kHSii-4" value="ICU stay" style="rounded=1;whiteSpace=wrap;html=1;fillColor=#f8cecc;strokeColor=#b85450;fontStyle=1" parent="1" vertex="1">
          <mxGeometry x="190" y="280" width="330" height="80" as="geometry" />
        </mxCell>
        <mxCell id="-10jFJpbOj4g2C5kHSii-2" value="" style="endArrow=block;html=1;endFill=1;strokeWidth=5;fillColor=#f5f5f5;strokeColor=#666666;startArrow=none;" parent="1" edge="1">
          <mxGeometry width="50" height="50" relative="1" as="geometry">
            <mxPoint x="120" y="333" as="sourcePoint" />
            <mxPoint x="720" y="333" as="targetPoint" />
          </mxGeometry>
        </mxCell>
        <mxCell id="-10jFJpbOj4g2C5kHSii-23" value="Time" style="edgeLabel;html=1;align=center;verticalAlign=middle;resizable=0;points=[];fontStyle=1;fontColor=#808080;" parent="-10jFJpbOj4g2C5kHSii-2" vertex="1" connectable="0">
          <mxGeometry x="0.92" y="-8" relative="1" as="geometry">
            <mxPoint x="-16" y="-21" as="offset" />
          </mxGeometry>
        </mxCell>
        <mxCell id="-10jFJpbOj4g2C5kHSii-11" value="" style="endArrow=block;startArrow=block;html=1;strokeWidth=2;endFill=1;startFill=1;" parent="1" edge="1">
          <mxGeometry width="50" height="50" relative="1" as="geometry">
            <mxPoint x="190" y="370" as="sourcePoint" />
            <mxPoint x="520" y="370" as="targetPoint" />
          </mxGeometry>
        </mxCell>
        <mxCell id="-10jFJpbOj4g2C5kHSii-15" value="&lt;div&gt;`\Delta_{\text{ICU LoS}}` &lt;font style=&quot;font-size: 8px&quot;&gt;(med=90.5h, IR=130h)&lt;/font&gt;&lt;/div&gt;" style="edgeLabel;html=1;align=center;verticalAlign=middle;resizable=0;points=[];labelBackgroundColor=#FFFFFF;" parent="-10jFJpbOj4g2C5kHSii-11" vertex="1" connectable="0">
          <mxGeometry x="-0.3885" y="-5" relative="1" as="geometry">
            <mxPoint x="109" y="5" as="offset" />
          </mxGeometry>
        </mxCell>
        <mxCell id="-10jFJpbOj4g2C5kHSii-18" value="" style="endArrow=none;html=1;strokeWidth=1;" parent="1" edge="1">
          <mxGeometry width="50" height="50" relative="1" as="geometry">
            <mxPoint x="300" y="330" as="sourcePoint" />
            <mxPoint x="300" y="240" as="targetPoint" />
          </mxGeometry>
        </mxCell>
        <mxCell id="-10jFJpbOj4g2C5kHSii-19" value="&lt;b&gt;T0-&lt;/b&gt;&lt;b&gt;Inclusion:&lt;/b&gt; &lt;br&gt;&lt;div&gt;first crystalloids&lt;br&gt;&lt;/div&gt;" style="edgeLabel;html=1;align=center;verticalAlign=middle;resizable=0;points=[];" parent="-10jFJpbOj4g2C5kHSii-18" vertex="1" connectable="0">
          <mxGeometry x="0.3914" relative="1" as="geometry">
            <mxPoint x="-40" y="-18" as="offset" />
          </mxGeometry>
        </mxCell>
        <mxCell id="-10jFJpbOj4g2C5kHSii-21" value="&lt;div&gt;`\Delta_{\text{intime}}` &lt;br&gt;&lt;font style=&quot;font-size: 8px&quot;&gt;(med=1.6h, IR=9h)&lt;/font&gt;&lt;/div&gt;" style="endArrow=block;startArrow=block;html=1;strokeWidth=1;endFill=1;startFill=1;labelBackgroundColor=none;" parent="1" edge="1">
          <mxGeometry x="-1" y="-20" width="50" height="50" relative="1" as="geometry">
            <mxPoint x="160.0000000000001" y="369.9999999999998" as="sourcePoint" />
            <mxPoint x="190.0000000000001" y="370" as="targetPoint" />
            <mxPoint as="offset" />
          </mxGeometry>
        </mxCell>
        <mxCell id="-10jFJpbOj4g2C5kHSii-22" value="&lt;div&gt;`\Delta_{\text{mortality}}`&lt;font style=&quot;font-size: 8px&quot;&gt; (med=40d, IR=250d)&lt;/font&gt;&lt;/div&gt;" style="endArrow=block;startArrow=block;html=1;strokeWidth=1;endFill=1;startFill=1;" parent="1" edge="1">
          <mxGeometry x="0.4286" y="13" width="50" height="50" relative="1" as="geometry">
            <mxPoint x="300" y="273" as="sourcePoint" />
            <mxPoint x="650" y="273" as="targetPoint" />
            <mxPoint as="offset" />
            <Array as="points">
              <mxPoint x="360" y="273" />
            </Array>
          </mxGeometry>
        </mxCell>
        <mxCell id="-10jFJpbOj4g2C5kHSii-29" value="" style="endArrow=none;html=1;strokeWidth=1;" parent="1" edge="1">
          <mxGeometry width="50" height="50" relative="1" as="geometry">
            <mxPoint x="660" y="330" as="sourcePoint" />
            <mxPoint x="660" y="220" as="targetPoint" />
          </mxGeometry>
        </mxCell>
        <mxCell id="-10jFJpbOj4g2C5kHSii-30" value="&lt;b&gt;Outcome:&lt;/b&gt; 28-day mortality " style="edgeLabel;html=1;align=center;verticalAlign=middle;resizable=0;points=[];" parent="-10jFJpbOj4g2C5kHSii-29" vertex="1" connectable="0">
          <mxGeometry x="0.3914" relative="1" as="geometry">
            <mxPoint x="-20" y="-35" as="offset" />
          </mxGeometry>
        </mxCell>
        <mxCell id="tSQmByo2gA4wdTQfpGhA-1" value="" style="endArrow=none;html=1;strokeWidth=1;" parent="1" edge="1">
          <mxGeometry width="50" height="50" relative="1" as="geometry">
            <mxPoint x="390" y="330" as="sourcePoint" />
            <mxPoint x="390" y="240" as="targetPoint" />
          </mxGeometry>
        </mxCell>
        <mxCell id="tSQmByo2gA4wdTQfpGhA-2" value="&lt;div&gt;&lt;b&gt;Intervention:&lt;/b&gt; albumin&lt;/div&gt;" style="edgeLabel;html=1;align=center;verticalAlign=middle;resizable=0;points=[];" parent="tSQmByo2gA4wdTQfpGhA-1" vertex="1" connectable="0">
          <mxGeometry x="0.3914" relative="1" as="geometry">
            <mxPoint x="60" y="-24" as="offset" />
          </mxGeometry>
        </mxCell>
      </root>
    </mxGraphModel>
  </diagram>
</mxfile>
